<svg xmlns="http://www.w3.org/2000/svg" xmlns:xlink="http://www.w3.org/1999/xlink" version="1.1" id="Layer_1" focusable="false" x="0px" y="0px" viewBox="0 0 512 512" style="enable-background:new 0 0 512 512;" xml:space="preserve"><script xmlns=""/>
<style type="text/css">
	.st0{display:none;fill:#B996F7;}
	.st1{fill:#B996F7;}
	.st2{opacity:0.4;fill:#FFFFFF;enable-background:new    ;}
	.st3{fill:#FFFFFF;}
</style>
<rect x="-0.9" class="st0" width="512" height="512"/>
<circle class="st0" cx="255.1" cy="256" r="256"/>
<path class="st1" d="M419.2,512H92.8C41.7,512,0,470.3,0,419.2V92.8C0,41.7,41.7,0,92.8,0h326.5c51,0,92.8,41.7,92.8,92.8v326.5  C512,470.3,470.3,512,419.2,512z"/>
<g>
	<path class="st2" d="M138.4,254.1l20.6-20.6c5.5-5.5,14.9-1.9,15.2,5.9c0.4,10,2.1,19.8,5.4,29.3c1.1,3.2,0.3,6.8-2.1,9.2l-7.3,7.3   c-15.6,15.6-16.1,41-0.6,56.7c15.5,15.8,40.9,16,56.7,0.5c0.1-0.1,0.1-0.1,0.2-0.2l37.3-37.4c15.6-15.6,15.6-41,0-56.6   c-1.8-1.8-3.7-3.4-5.8-4.8c-2.4-1.6-3.8-4.2-3.9-7c-0.2-6.2,2.1-12.2,6.5-16.6l11.7-11.7c3.1-3.1,7.9-3.5,11.4-1   c38.3,26.7,47.6,79.5,20.9,117.7c-2.8,4-5.9,7.7-9.3,11.1l-0.2,0.2l-37.3,37.3c-33,33-86.6,33-119.6,0S105.4,287.1,138.4,254.1   L138.4,254.1z"/>
	<path class="st3" d="M341.7,226.8c15.6-15.6,16.1-41,0.6-56.7c-15.5-15.8-40.9-16-56.7-0.5c-0.1,0.1-0.1,0.1-0.2,0.2l-37.3,37.3   c-15.6,15.6-15.6,41,0,56.6c1.8,1.8,3.7,3.4,5.8,4.8c2.4,1.6,3.8,4.2,3.9,7c0.2,6.2-2.1,12.2-6.5,16.6l-11.8,11.7   c-3.1,3.1-7.9,3.5-11.4,1c-38.3-26.7-47.7-79.5-20.9-117.7c2.8-4,5.9-7.7,9.4-11.1l0.2-0.2l37.3-37.3c33-33,86.6-33,119.6,0   s33,86.6,0,119.6L353,278.6c-5.5,5.5-14.9,1.9-15.2-5.9c-0.4-10-2.1-19.8-5.4-29.3c-1.1-3.2-0.3-6.8,2.1-9.2L341.7,226.8z"/>
</g>
<script xmlns=""/></svg>